<svg width="11" height="14" viewBox="0 0 11 14" fill="none" xmlns="http://www.w3.org/2000/svg">
<path d="M7.5 2.5H1.5C1.23478 2.5 0.98043 2.60536 0.792893 2.79289C0.605357 2.98043 0.5 3.23478 0.5 3.5V13C0.499998 13.0919 0.525307 13.182 0.57315 13.2604C0.620993 13.3388 0.689519 13.4026 0.771207 13.4446C0.852895 13.4866 0.944586 13.5054 1.03621 13.4987C1.12784 13.492 1.21587 13.4603 1.29063 13.4069L4.5 11.1144L7.71 13.4069C7.78476 13.4601 7.87272 13.4917 7.96425 13.4983C8.05578 13.5048 8.14735 13.4861 8.22894 13.4441C8.31052 13.4021 8.37896 13.3384 8.42678 13.2601C8.47459 13.1817 8.49992 13.0918 8.5 13V3.5C8.5 3.23478 8.39464 2.98043 8.20711 2.79289C8.01957 2.60536 7.76522 2.5 7.5 2.5ZM7.5 12.0288L4.79 10.0913C4.7052 10.0307 4.60359 9.99811 4.49937 9.99811C4.39516 9.99811 4.29355 10.0307 4.20875 10.0913L1.5 12.0281V3.5H7.5V12.0288ZM10.5 1.5V11C10.5 11.1326 10.4473 11.2598 10.3536 11.3536C10.2598 11.4473 10.1326 11.5 10 11.5C9.86739 11.5 9.74021 11.4473 9.64645 11.3536C9.55268 11.2598 9.5 11.1326 9.5 11V1.5H3C2.86739 1.5 2.74021 1.44732 2.64645 1.35355C2.55268 1.25979 2.5 1.13261 2.5 1C2.5 0.867392 2.55268 0.740215 2.64645 0.646447C2.74021 0.552678 2.86739 0.5 3 0.5H9.5C9.76522 0.5 10.0196 0.605357 10.2071 0.792893C10.3946 0.98043 10.5 1.23478 10.5 1.5Z" fill="#FCFAFF" style="fill:#FCFAFF;fill:color(display-p3 0.9882 0.9804 1.0000);fill-opacity:1;"/>
</svg>
