<svg width="13" height="12" viewBox="0 0 13 12" fill="none" xmlns="http://www.w3.org/2000/svg">
<path d="M12 0H1.00002C0.734801 0 0.480447 0.105357 0.292911 0.292893C0.105374 0.48043 1.74121e-05 0.734784 1.74121e-05 1V11C-0.0011125 11.1906 0.0527713 11.3775 0.155205 11.5382C0.257639 11.699 0.404273 11.8268 0.577518 11.9062C0.709904 11.9677 0.854058 11.9997 1.00002 12C1.23477 11.9994 1.46173 11.9157 1.64064 11.7638L1.64627 11.7594L3.68752 10H12C12.2652 10 12.5196 9.89464 12.7071 9.70711C12.8947 9.51957 13 9.26522 13 9V1C13 0.734784 12.8947 0.48043 12.7071 0.292893C12.5196 0.105357 12.2652 0 12 0ZM12 9H3.50002C3.37996 9.00006 3.26394 9.04332 3.17314 9.12187L1.00002 11V1H12V9ZM4.00002 4C4.00002 3.86739 4.0527 3.74021 4.14646 3.64645C4.24023 3.55268 4.36741 3.5 4.50002 3.5H8.50002C8.63263 3.5 8.7598 3.55268 8.85357 3.64645C8.94734 3.74021 9.00002 3.86739 9.00002 4C9.00002 4.13261 8.94734 4.25979 8.85357 4.35355C8.7598 4.44732 8.63263 4.5 8.50002 4.5H4.50002C4.36741 4.5 4.24023 4.44732 4.14646 4.35355C4.0527 4.25979 4.00002 4.13261 4.00002 4ZM4.00002 6C4.00002 5.86739 4.0527 5.74021 4.14646 5.64645C4.24023 5.55268 4.36741 5.5 4.50002 5.5H8.50002C8.63263 5.5 8.7598 5.55268 8.85357 5.64645C8.94734 5.74021 9.00002 5.86739 9.00002 6C9.00002 6.13261 8.94734 6.25979 8.85357 6.35355C8.7598 6.44732 8.63263 6.5 8.50002 6.5H4.50002C4.36741 6.5 4.24023 6.44732 4.14646 6.35355C4.0527 6.25979 4.00002 6.13261 4.00002 6Z" fill="#242424" style="fill:#242424;fill:color(display-p3 0.1412 0.1412 0.1412);fill-opacity:1;"/>
</svg>
