<svg width="13" height="13" viewBox="0 0 13 13" fill="none" xmlns="http://www.w3.org/2000/svg">
<path d="M12.7075 3.58563L9.91438 0.793127C9.82152 0.700244 9.71127 0.626564 9.58992 0.576295C9.46858 0.526026 9.33853 0.500153 9.20719 0.500153C9.07585 0.500153 8.94579 0.526026 8.82445 0.576295C8.70311 0.626564 8.59286 0.700244 8.5 0.793127L0.793126 8.5C0.699863 8.59252 0.625922 8.70266 0.575601 8.82401C0.525279 8.94536 0.499582 9.07551 0.500001 9.20688V12C0.500001 12.2652 0.605358 12.5196 0.792894 12.7071C0.980431 12.8946 1.23478 13 1.5 13H12C12.1326 13 12.2598 12.9473 12.3536 12.8536C12.4473 12.7598 12.5 12.6326 12.5 12.5C12.5 12.3674 12.4473 12.2402 12.3536 12.1464C12.2598 12.0527 12.1326 12 12 12H5.7075L12.7075 5C12.8004 4.90714 12.8741 4.79689 12.9243 4.67555C12.9746 4.55421 13.0005 4.42415 13.0005 4.29281C13.0005 4.16147 12.9746 4.03142 12.9243 3.91008C12.8741 3.78874 12.8004 3.67849 12.7075 3.58563ZM4.29313 12H1.5V9.20688L7 3.70688L9.79313 6.5L4.29313 12ZM10.5 5.79313L7.7075 3L9.2075 1.5L12 4.29313L10.5 5.79313Z" fill="#694C80" style="fill:#694C80;fill:color(display-p3 0.4118 0.2980 0.5020);fill-opacity:1;"/>
</svg>
