<svg width="13" height="13" viewBox="0 0 13 13" fill="none" xmlns="http://www.w3.org/2000/svg">
<path d="M12.8538 2.64625L10.8538 0.646247C10.8073 0.599758 10.7522 0.562879 10.6915 0.537717C10.6308 0.512554 10.5657 0.499603 10.5 0.499603C10.4343 0.499603 10.3692 0.512554 10.3085 0.537717C10.2478 0.562879 10.1927 0.599758 10.1462 0.646247L4.14625 6.64625C4.09983 6.69272 4.06303 6.74787 4.03793 6.80857C4.01284 6.86927 3.99995 6.93432 4 7V9C4 9.1326 4.05268 9.25978 4.14645 9.35355C4.24021 9.44732 4.36739 9.5 4.5 9.5H6.5C6.56568 9.50005 6.63073 9.48716 6.69143 9.46206C6.75212 9.43697 6.80728 9.40016 6.85375 9.35375L12.8538 3.35375C12.9002 3.30731 12.9371 3.25217 12.9623 3.19147C12.9874 3.13077 13.0004 3.0657 13.0004 3C13.0004 2.93429 12.9874 2.86923 12.9623 2.80853C12.9371 2.74783 12.9002 2.69268 12.8538 2.64625ZM6.29313 8.5H5V7.20687L9 3.20687L10.2931 4.5L6.29313 8.5ZM11 3.79312L9.70687 2.5L10.5 1.70687L11.7931 3L11 3.79312ZM12.5 7V12C12.5 12.2652 12.3946 12.5196 12.2071 12.7071C12.0196 12.8946 11.7652 13 11.5 13H1.5C1.23478 13 0.98043 12.8946 0.792893 12.7071C0.605357 12.5196 0.5 12.2652 0.5 12V2C0.5 1.73478 0.605357 1.48043 0.792893 1.29289C0.98043 1.10535 1.23478 0.999997 1.5 0.999997H6.5C6.63261 0.999997 6.75979 1.05268 6.85355 1.14644C6.94732 1.24021 7 1.36739 7 1.5C7 1.6326 6.94732 1.75978 6.85355 1.85355C6.75979 1.94732 6.63261 2 6.5 2H1.5V12H11.5V7C11.5 6.86739 11.5527 6.74021 11.6464 6.64644C11.7402 6.55268 11.8674 6.5 12 6.5C12.1326 6.5 12.2598 6.55268 12.3536 6.64644C12.4473 6.74021 12.5 6.86739 12.5 7Z" fill="#694C80" style="fill:#694C80;fill:color(display-p3 0.4118 0.2980 0.5020);fill-opacity:1;"/>
</svg>
