<svg width="14" height="10" viewBox="0 0 14 10" fill="none" xmlns="http://www.w3.org/2000/svg">
<path d="M6.5 3H13C13.1326 3 13.2598 3.05268 13.3536 3.14645C13.4473 3.24021 13.5 3.36739 13.5 3.5C13.5 3.63261 13.4473 3.75979 13.3536 3.85355C13.2598 3.94732 13.1326 4 13 4H6.5C6.36739 4 6.24021 3.94732 6.14645 3.85355C6.05268 3.75979 6 3.63261 6 3.5C6 3.36739 6.05268 3.24021 6.14645 3.14645C6.24021 3.05268 6.36739 3 6.5 3ZM13 5H6.5C6.36739 5 6.24021 5.05268 6.14645 5.14645C6.05268 5.24021 6 5.36739 6 5.5C6 5.63261 6.05268 5.75979 6.14645 5.85355C6.24021 5.94732 6.36739 6 6.5 6H13C13.1326 6 13.2598 5.94732 13.3536 5.85355C13.4473 5.75979 13.5 5.63261 13.5 5.5C13.5 5.36739 13.4473 5.24021 13.3536 5.14645C13.2598 5.05268 13.1326 5 13 5ZM13 7H3.5C3.36739 7 3.24021 7.05268 3.14645 7.14645C3.05268 7.24021 3 7.36739 3 7.5C3 7.63261 3.05268 7.75979 3.14645 7.85355C3.24021 7.94732 3.36739 8 3.5 8H13C13.1326 8 13.2598 7.94732 13.3536 7.85355C13.4473 7.75979 13.5 7.63261 13.5 7.5C13.5 7.36739 13.4473 7.24021 13.3536 7.14645C13.2598 7.05268 13.1326 7 13 7ZM13 9H3.5C3.36739 9 3.24021 9.05268 3.14645 9.14645C3.05268 9.24021 3 9.36739 3 9.5C3 9.63261 3.05268 9.75979 3.14645 9.85355C3.24021 9.94732 3.36739 10 3.5 10H13C13.1326 10 13.2598 9.94732 13.3536 9.85355C13.4473 9.75979 13.5 9.63261 13.5 9.5C13.5 9.36739 13.4473 9.24021 13.3536 9.14645C13.2598 9.05268 13.1326 9 13 9ZM4.5 6C4.63261 6 4.75979 5.94732 4.85355 5.85355C4.94732 5.75979 5 5.63261 5 5.5C5 5.36739 4.94732 5.24021 4.85355 5.14645C4.75979 5.05268 4.63261 5 4.5 5H4V1H6V1.5C6 1.63261 6.05268 1.75979 6.14645 1.85355C6.24021 1.94732 6.36739 2 6.5 2C6.63261 2 6.75979 1.94732 6.85355 1.85355C6.94732 1.75979 7 1.63261 7 1.5V0.5C7 0.367392 6.94732 0.240215 6.85355 0.146447C6.75979 0.0526785 6.63261 0 6.5 0H0.5C0.367392 0 0.240215 0.0526785 0.146447 0.146447C0.0526784 0.240215 0 0.367392 0 0.5V1.5C0 1.63261 0.0526784 1.75979 0.146447 1.85355C0.240215 1.94732 0.367392 2 0.5 2C0.632608 2 0.759785 1.94732 0.853553 1.85355C0.947321 1.75979 1 1.63261 1 1.5V1H3V5H2.5C2.36739 5 2.24021 5.05268 2.14645 5.14645C2.05268 5.24021 2 5.36739 2 5.5C2 5.63261 2.05268 5.75979 2.14645 5.85355C2.24021 5.94732 2.36739 6 2.5 6H4.5Z" fill="#FCFAFF" style="fill:#FCFAFF;fill:color(display-p3 0.9882 0.9804 1.0000);fill-opacity:1;"/>
</svg>
