<svg width="14" height="13" viewBox="0 0 14 13" fill="none" xmlns="http://www.w3.org/2000/svg">
<path d="M7 0C5.71442 0 4.45772 0.381218 3.3888 1.09545C2.31988 1.80968 1.48676 2.82484 0.994786 4.01256C0.502816 5.20028 0.374095 6.50721 0.624899 7.76809C0.875703 9.02896 1.49477 10.1872 2.40381 11.0962C3.31285 12.0052 4.47104 12.6243 5.73192 12.8751C6.99279 13.1259 8.29973 12.9972 9.48744 12.5052C10.6752 12.0132 11.6903 11.1801 12.4046 10.1112C13.1188 9.04229 13.5 7.78558 13.5 6.5C13.498 4.7767 12.8126 3.12455 11.594 1.906C10.3754 0.687442 8.7233 0.00198499 7 0ZM12.5 6.5C12.5004 7.00723 12.4304 7.51205 12.2919 8H9.885C10.0383 7.00588 10.0383 5.99412 9.885 5H12.2919C12.4304 5.48795 12.5004 5.99277 12.5 6.5ZM5.375 9H8.625C8.30482 10.0491 7.74899 11.0111 7 11.8125C6.2513 11.0109 5.69551 10.049 5.375 9ZM5.13125 8C4.95959 7.00737 4.95959 5.99263 5.13125 5H8.87375C9.04541 5.99263 9.04541 7.00737 8.87375 8H5.13125ZM1.5 6.5C1.49957 5.99277 1.56961 5.48795 1.70813 5H4.115C3.96167 5.99412 3.96167 7.00588 4.115 8H1.70813C1.56961 7.51205 1.49957 7.00723 1.5 6.5ZM8.625 4H5.375C5.69518 2.95088 6.25102 1.98886 7 1.1875C7.74871 1.98908 8.3045 2.95102 8.625 4ZM11.8956 4H9.66938C9.38879 2.97057 8.91588 2.00355 8.27563 1.15C9.0492 1.33583 9.77344 1.68674 10.3987 2.17866C11.024 2.67058 11.5355 3.29189 11.8981 4H11.8956ZM5.72438 1.15C5.08413 2.00355 4.61122 2.97057 4.33063 4H2.10188C2.46455 3.29189 2.97605 2.67058 3.60131 2.17866C4.22657 1.68674 4.95081 1.33583 5.72438 1.15ZM2.10188 9H4.33063C4.61122 10.0294 5.08413 10.9965 5.72438 11.85C4.95081 11.6642 4.22657 11.3133 3.60131 10.8213C2.97605 10.3294 2.46455 9.70811 2.10188 9ZM8.27563 11.85C8.91588 10.9965 9.38879 10.0294 9.66938 9H11.8981C11.5355 9.70811 11.024 10.3294 10.3987 10.8213C9.77344 11.3133 9.0492 11.6642 8.27563 11.85Z" fill="#FCFAFF" style="fill:#FCFAFF;fill:color(display-p3 0.9882 0.9804 1.0000);fill-opacity:1;"/>
</svg>
