<svg width="11" height="14" viewBox="0 0 11 14" fill="none" xmlns="http://www.w3.org/2000/svg">
<path d="M10.8538 3.14625L8.35375 0.64625C8.30728 0.599833 8.25212 0.563026 8.19143 0.537932C8.13073 0.512838 8.06568 0.499949 8 0.5H3C2.73478 0.5 2.48043 0.605357 2.29289 0.792893C2.10536 0.98043 2 1.23478 2 1.5V2.5H1C0.734784 2.5 0.48043 2.60536 0.292893 2.79289C0.105357 2.98043 0 3.23478 0 3.5V12.5C0 12.7652 0.105357 13.0196 0.292893 13.2071C0.48043 13.3946 0.734784 13.5 1 13.5H8C8.26522 13.5 8.51957 13.3946 8.70711 13.2071C8.89464 13.0196 9 12.7652 9 12.5V11.5H10C10.2652 11.5 10.5196 11.3946 10.7071 11.2071C10.8946 11.0196 11 10.7652 11 10.5V3.5C11.0001 3.43432 10.9872 3.36927 10.9621 3.30858C10.937 3.24788 10.9002 3.19272 10.8538 3.14625ZM8 12.5H1V3.5H5.79313L8 5.70687V10.99C8 10.9937 8 10.9969 8 11C8 11.0031 8 11.0063 8 11.01V12.5ZM10 10.5H9V5.5C9.00005 5.43432 8.98716 5.36927 8.96207 5.30858C8.93697 5.24788 8.90017 5.19272 8.85375 5.14625L6.35375 2.64625C6.30728 2.59983 6.25212 2.56303 6.19143 2.53793C6.13073 2.51284 6.06568 2.49995 6 2.5H3V1.5H7.79313L10 3.70688V10.5ZM6.5 8.5C6.5 8.63261 6.44732 8.75979 6.35355 8.85355C6.25979 8.94732 6.13261 9 6 9H3C2.86739 9 2.74021 8.94732 2.64645 8.85355C2.55268 8.75979 2.5 8.63261 2.5 8.5C2.5 8.36739 2.55268 8.24021 2.64645 8.14645C2.74021 8.05268 2.86739 8 3 8H6C6.13261 8 6.25979 8.05268 6.35355 8.14645C6.44732 8.24021 6.5 8.36739 6.5 8.5ZM6.5 10.5C6.5 10.6326 6.44732 10.7598 6.35355 10.8536C6.25979 10.9473 6.13261 11 6 11H3C2.86739 11 2.74021 10.9473 2.64645 10.8536C2.55268 10.7598 2.5 10.6326 2.5 10.5C2.5 10.3674 2.55268 10.2402 2.64645 10.1464C2.74021 10.0527 2.86739 10 3 10H6C6.13261 10 6.25979 10.0527 6.35355 10.1464C6.44732 10.2402 6.5 10.3674 6.5 10.5Z" fill="#FCFAFF"/>
</svg>
